<svg id="Layer_1" data-name="Layer 1" xmlns="http://www.w3.org/2000/svg" viewBox="0 0 1001.87 238.23"><defs><style>.cls-1{fill:#ff7f66;}.cls-2,.cls-4{fill:#2a344f;}.cls-2{opacity:0.32;}.cls-2,.cls-5{isolation:isolate;}.cls-3{opacity:0.16;}.cls-6{fill:#fff;}</style></defs><g id="Page-1"><g id="logo-text"><g id="Group"><g id="Path"><path class="cls-1" d="M199.21,7.78l-81.89,20a5.94,5.94,0,0,1-4.57-.78L74,1.76a5.87,5.87,0,0,0-4.84-.71L2.2,20.74A2.87,2.87,0,0,0,0,23.46V63.51L69.2,43.18a5.87,5.87,0,0,1,4.84.71l38.71,25.23a5.72,5.72,0,0,0,4.57.78L201,49.46V9.11a1.45,1.45,0,0,0-1.45-1.41Z" transform="translate(0 -0.81)"/><path class="cls-1" d="M149.82,104.26l-32.5,7.8a5.81,5.81,0,0,1-4.57-.78L74,86A1.39,1.39,0,0,0,73,85.8a1.35,1.35,0,0,0-.9.63,1.17,1.17,0,0,0-.26.74v38a2.81,2.81,0,0,0,1.27,2.34l39.68,26a5.87,5.87,0,0,0,4.57.74l34.36-8.21a25.5,25.5,0,0,0,19.54-24.67v-.78A17.18,17.18,0,0,0,153.8,103.7a18.45,18.45,0,0,0-4,.56Z" transform="translate(0 -0.81)"/><path class="cls-1" d="M149.82,188.52l-32.5,7.8a5.94,5.94,0,0,1-4.57-.78L74,170.28a1.45,1.45,0,0,0-1.07-.22,1.41,1.41,0,0,0-.91.59,1.31,1.31,0,0,0-.26.78v38a2.81,2.81,0,0,0,1.27,2.34l39.68,26a5.72,5.72,0,0,0,4.57.78l34.36-8.25a25.42,25.42,0,0,0,19.54-24.67v-.78A17.17,17.17,0,0,0,153.8,188a16.25,16.25,0,0,0-4,.55Z" transform="translate(0 -0.81)"/></g><path id="Shape" class="cls-2" d="M114,154.84V113.07a6.36,6.36,0,0,0,2.46,0l14-3.7,8.19,40-22.32,5.4A5.46,5.46,0,0,1,114,154.84Zm32.81,34.53-30.35,7.4a6.36,6.36,0,0,1-2.46,0v42.11a6.36,6.36,0,0,0,2.46,0l38.54-9.4ZM114,71a6,6,0,0,0,2.46,0l5.84-1.41L114,29Z" transform="translate(0 -0.81)"/><g id="Path-2" data-name="Path" class="cls-3"><path class="cls-4" d="M71.25,43.25a6.64,6.64,0,0,1,2.24.86L112.35,69.4a5.15,5.15,0,0,0,2.13.82V28a5.15,5.15,0,0,1-2.13-.82L73.49,1.93a6.64,6.64,0,0,0-2.24-.86Z" transform="translate(0 -0.81)"/><path class="cls-4" d="M114.48,196.79a6.26,6.26,0,0,1-2.13-.85L73.49,170.65a1.45,1.45,0,0,0-2,.41,1.3,1.3,0,0,0-.23.74v38a2.8,2.8,0,0,0,1.27,2.34l39.83,26a6.42,6.42,0,0,0,2.13.82Z" transform="translate(0 -0.81)"/><path class="cls-4" d="M73.49,86.29a1.45,1.45,0,0,0-2,.41,1.32,1.32,0,0,0-.23.74v38.05a2.78,2.78,0,0,0,1.27,2.34l39.83,26a5.83,5.83,0,0,0,2.13.82V112.58a5.28,5.28,0,0,1-2.13-.85Z" transform="translate(0 -0.81)"/></g></g>
</g></g></svg>