<?xml version="1.0" encoding="iso-8859-1"?>
<!-- Generator: Adobe Illustrator 19.0.0, SVG Export Plug-In . SVG Version: 6.00 Build 0)  -->
<svg version="1.1" id="Layer_1" xmlns="http://www.w3.org/2000/svg" xmlns:xlink="http://www.w3.org/1999/xlink" x="0px" y="0px"
	 viewBox="0 0 508 508" style="enable-background:new 0 0 508 508;" xml:space="preserve">
<circle style="fill:#FFD05B;" cx="254" cy="254" r="254"/>
<path style="fill:#F9B54C;" d="M46,399.6C92,465.2,168,508,254,508s162-42.8,208-108.4H46z"/>
<polygon style="fill:#F1543F;" points="408,121.6 100,121.6 63.6,192.8 444.4,192.8 "/>
<rect x="86" y="192.8" style="fill:#E6E9EE;" width="333.2" height="206.8"/>
<rect x="182.4" y="150.8" style="fill:#FFFFFF;" width="140.4" height="248.8"/>
<polygon style="fill:#FF7058;" points="354,160.4 252.8,66 151.6,160.4 "/>
<g>
	<rect x="338" y="212.8" style="fill:#ACB3BA;" width="23.2" height="23.2"/>
	<rect x="376" y="212.8" style="fill:#ACB3BA;" width="23.2" height="23.2"/>
	<rect x="338" y="258" style="fill:#ACB3BA;" width="23.2" height="23.2"/>
	<rect x="376" y="258" style="fill:#ACB3BA;" width="23.2" height="23.2"/>
	<rect x="338" y="303.2" style="fill:#ACB3BA;" width="23.2" height="23.2"/>
	<rect x="376" y="303.2" style="fill:#ACB3BA;" width="23.2" height="23.2"/>
	<rect x="104.4" y="212.8" style="fill:#ACB3BA;" width="23.2" height="23.2"/>
	<rect x="142.4" y="212.8" style="fill:#ACB3BA;" width="23.2" height="23.2"/>
	<rect x="104.4" y="258" style="fill:#ACB3BA;" width="23.2" height="23.2"/>
	<rect x="142.4" y="258" style="fill:#ACB3BA;" width="23.2" height="23.2"/>
	<rect x="104.4" y="303.2" style="fill:#ACB3BA;" width="23.2" height="23.2"/>
	<rect x="142.4" y="303.2" style="fill:#ACB3BA;" width="23.2" height="23.2"/>
</g>
<g>
	<rect x="198" y="185.6" style="fill:#E6E9EE;" width="24.8" height="24.8"/>
	<rect x="240.4" y="185.6" style="fill:#E6E9EE;" width="24.8" height="24.8"/>
	<rect x="282.8" y="185.6" style="fill:#E6E9EE;" width="24.8" height="24.8"/>
	<rect x="198" y="229.6" style="fill:#E6E9EE;" width="24.8" height="24.8"/>
	<rect x="240.4" y="229.6" style="fill:#E6E9EE;" width="24.8" height="24.8"/>
	<rect x="282.8" y="229.6" style="fill:#E6E9EE;" width="24.8" height="24.8"/>
	<rect x="198" y="273.6" style="fill:#E6E9EE;" width="24.8" height="24.8"/>
	<rect x="240.4" y="273.6" style="fill:#E6E9EE;" width="24.8" height="24.8"/>
	<rect x="282.8" y="273.6" style="fill:#E6E9EE;" width="24.8" height="24.8"/>
	<rect x="198" y="317.6" style="fill:#E6E9EE;" width="24.8" height="24.8"/>
	<rect x="240.4" y="317.6" style="fill:#E6E9EE;" width="24.8" height="24.8"/>
	<rect x="282.8" y="317.6" style="fill:#E6E9EE;" width="24.8" height="24.8"/>
	<circle style="fill:#E6E9EE;" cx="254" cy="121.6" r="28"/>
</g>
<circle style="fill:#FFFFFF;" cx="254" cy="121.6" r="21.6"/>
<g>
</g>
<g>
</g>
<g>
</g>
<g>
</g>
<g>
</g>
<g>
</g>
<g>
</g>
<g>
</g>
<g>
</g>
<g>
</g>
<g>
</g>
<g>
</g>
<g>
</g>
<g>
</g>
<g>
</g>
</svg>
