<svg xmlns:dc="http://purl.org/dc/elements/1.1/" xmlns:cc="http://creativecommons.org/ns#" xmlns:rdf="http://www.w3.org/1999/02/22-rdf-syntax-ns#" xmlns:svg="http://www.w3.org/2000/svg" xmlns="http://www.w3.org/2000/svg" viewBox="0 0 762 762" fill="none"><metadata><rdf:RDF><cc:Work><dc:format>image/svg+xml</dc:format><dc:type rdf:resource="http://purl.org/dc/dcmitype/StillImage"/><dc:title>Adventurer</dc:title><dc:creator><cc:Agent><dc:title>Lisa Wischofsky</dc:title></cc:Agent></dc:creator><dc:source>https://www.instagram.com/lischis_adventures/</dc:source><cc:license rdf:resource="https://creativecommons.org/licenses/by/4.0/"/></cc:Work><cc:License rdf:about="https://creativecommons.org/licenses/by/4.0/"><cc:permits rdf:resource="https://creativecommons.org/ns#Reproduction"/><cc:permits rdf:resource="https://creativecommons.org/ns#Distribution"/><cc:permits rdf:resource="https://creativecommons.org/ns#DerivativeWorks"/><cc:requires rdf:resource="https://creativecommons.org/ns#Notice"/><cc:requires rdf:resource="https://creativecommons.org/ns#Attribution"/></cc:License></rdf:RDF></metadata><mask id="avatarsRadiusMask"><rect width="762" height="762" rx="0" ry="0" x="0" y="0" fill="#fff"/></mask><g mask="url(#avatarsRadiusMask)"><path d="M396.01 164.85c37.82 4.9 74.21 19.64 104.8 42.39 6.15 4.84 12.48 9.33 18.02 14.92 23.77 21.98 42.73 49.02 55.13 78.95 9.35 22.31 14.72 46.04 16.64 70.14 6.62.81 13.05 2.14 19.12 5 15.54 6.93 27.08 20.94 31.78 37.21 2.63 9.56 3.56 19.75 1.72 29.55-2.96 18.76-13.72 36.13-29.37 46.92-10.94 7.65-24.49 12.03-37.86 11.68-5.13-.05-10.04-1.6-15.13-1.79-1.85 2.17-3.23 4.84-4.76 7.25-18.66 29.62-44.57 54.51-74.64 72.4-28.1 16.73-59.9 27.16-92.46 30.32-11.08.7-21.87 2.05-32.98.74-51.69-2.3-102.07-23.44-140.15-58.43-29.03-26.55-50.84-60.83-62.54-98.39-7.09-22.85-10.62-46.78-10.07-70.71.52-40.34 12.53-80.58 33.94-114.76 19.1-30.81 45.91-56.58 77.2-74.83 29.63-17.28 63.35-27.68 97.59-29.87 14.66-1.47 29.44-.37 44.02 1.31Z" fill="#000"/><path d="M363 169.06c48.47-1.39 97.32 14.7 135.81 44.12 6.55 4.06 11.72 9.49 17.36 14.64 24.33 22.63 43.2 50.95 54.93 82.02 7.43 19.61 11.86 40.2 13.56 61.09-8.89.74-17.34 2.34-25.38 6.38-2.19 1.03-1.89 4.95.68 5.23 2.35.23 4.98-1.51 7.24-2.2 14.62-5.37 31.32-4.35 44.78 3.68 11.69 6.78 20.09 18.16 23.89 31.06 2.6 8.25 2.68 17.41 1.76 25.95-2.5 17.35-12.35 33.73-26.73 43.81-15.71 11.33-37.17 14.64-54.93 6.2-3.17-1.43-5.94-3.58-9.08-5.05-2.95-1.09-4.88 2.79-2.7 4.75 3.17 2.76 7.34 4.52 11 6.56-20.14 34.15-49.45 62.7-84.41 81.47-30.2 16.31-64.44 25.53-98.78 26.15-27.63.72-55.33-4.04-81.21-13.72-30.32-11.24-57.84-29.43-80.37-52.6-22.67-23.37-39.92-51.88-50.2-82.77-14.96-44.64-14.91-94.01.27-138.59 11.05-33.06 30.28-63.21 55.37-87.39 29.67-28.73 67.65-48.54 108.13-56.67 12.8-2.52 25.94-4.24 39.01-4.12Z" fill="rgba(118, 57, 0, 1)"/><path d="M605.03 404.4c2.63-.1 3.44 3.8 1.36 4.98-3.69 1.83-7.82 2.77-11.64 4.35-5.82 2.04-11.28 4.76-16.68 7.72 4.29 2.34 8.86 4.74 12.71 7.76 2.58 2.09 4.85 4.35 5.33 7.8-.26 3.59-2.73 6.55-5.45 8.69-5.86 4.66-13.92 7.18-20.79 10.26-1.75.62-4.43 1.99-5.59-.26-1.02-1.74-.06-3.11 1.57-3.87 6.65-3.3 14.86-5.62 20.79-10.16 1.37-1.14 3.39-2.74 3.61-4.62-4.07-5.63-12.42-8.59-18.23-12.09-2.34-1.72-2.29-4.24-.16-6.13 7.27-5.64 16.98-9.26 25.57-12.38 2.42-.83 5.03-1.95 7.6-2.05Z" fill="#000"/><g transform="translate(-161 -83)"><g fill="#000"><path d="M619.86 481.79c.88.37 1.76.75 2.63 1.13-.12 1-.28 1.99-.47 2.98-2.21 3.85-5.93 6.93-9 10.11-5.85 5-12.25 9.47-19.16 12.88-14.05 7.01-30.23 9.88-45.84 8.4-19.45-1.64-38.43-9.82-54.21-21.1-1.39-1.13-2.87-1.98-2.46-4.04.53-2.48 3.96-3.31 6.11-2.45 21.21 6.28 42.63 6.72 64.55 5.45 16.26-1.55 32.06-4.27 47.52-9.68 3.54-1.21 6.78-2.79 10.33-3.68ZM440.55 492.43c2.8 1.36 2.21 4.42.14 6.19-10.83 9.97-25.3 16.29-39.72 18.8-7.78.99-15.1 2.3-22.95 1.12-13.82-1.06-27.27-5.1-39.01-12.53-2.15-1.4-4.67-2.9-6.19-5-.62-2.53.72-3.88 3.14-4.18 2.71.28 5.43 1.35 8.08 2.03 7.56 2.13 15.22 3.03 23.01 3.79 21.44 1.58 43.68-.86 64.15-7.53 2.94-.78 6.3-2.97 9.35-2.69Z"/></g></g><g transform="translate(-161 -83)"><path d="M582.3 370.69c14.06 7.04 27.75 17.35 36.57 30.53 2.05 2.95-1.4 6.24-4.23 4.15-10.56-6.54-22.24-11.16-34.46-13.42-35.66-6.86-74.47 5.14-98.23 33.03-1.67 2.05-4.03 3.59-6.28 1.25-1.68-2.6-2.27-6.05-3.3-8.95-1.92 4.71-3.86 9.5-6.21 14.02-1.55 3.23-6 1.12-7.03-1.42-3.06-6.88-6.21-13.74-9.02-20.73.01 5.63.01 11.25.04 16.88-.19 2.06.27 4.35-2.11 5.22-2.06.23-4.36-1.03-5.3-2.91-3.26-5.88-6.24-11.93-9.49-17.82.96 5.51 2.6 10.99 3.1 16.55.12 1.94-2.28 3.44-4.02 2.36-18.54-7.4-38.31-11.49-58.33-10.09-12.5.92-26.14 4.63-36 12.68-3.09 2.34-5.2 5.51-7.97 8.15-1.65.72-3.27-.24-4.88-.65.08-1.91.11-3.75.73-5.58 6.86-20.67 20.43-39.8 39.98-50.1 13.56-7.32 30.17-9.03 44.62-3.35 11.89 4.55 20.95 13.32 27.67 23.95 2.31-2.84 4.25-6.03 6.75-8.71 1.62-1.56 4.62-1.55 5.63.72 2.52 5.15 4.68 10.51 6.98 15.78 1.49-7.42 3.06-14.81 4.43-22.24.33-1.5.6-3.23 1.58-4.45 1.65-1.25 2.9-.28 4.65.1.27.86.53 1.71.8 2.56 2.08-4.75 4.75-9.11 8.44-12.78 9.1-9.43 21.82-14.25 34.5-16.48 23.85-3.69 48.86 1.12 70.39 11.75Z" fill="#000"/></g><g transform="translate(-161 -83)"><path d="M514.98 571.8c9.94-.79 20.34-.67 29.51 3.7 4.75 2.28 8.76 6.09 9.73 11.45.87 5.24-1.16 9.93-4.09 14.14-5.1 7.1-13.03 12.35-20.62 16.48-16.5 8.76-34.08 12.05-52.5 13.76-20.25 3.08-41.64-1.62-59.12-12.17-6.21-3.9-12.82-9.26-16.03-16-2.56-5.26-2.25-12.01 1.93-16.37 4.77-5.2 12.43-7.15 19.2-7.88 15.6-1.27 30.57 2.31 44.79 8.5 14.37-8.43 30.61-13.9 47.2-15.61Z" fill="#000"/><path d="M540.41 580c-3.76 3.21-7.89 5.79-12.13 8.3-2.67 1.53-3.75 4.13-5.44 6.6-1.56 2.55-3.53 4.72-5.75 6.71-3.02-1.1-5.96-2.85-9.11-3.5-3.03.45-5.9 1.87-8.86 2.66-10.02 2.86-20.67 5.01-31.12 4.92-2.95-.04-5.77.19-8.66.81.26 2.47-.5 4.67 2.82 5.01 14.67.86 29.74-2.01 43.63-6.66 4.74-2.07 7.69 3.08 12.84 1.72 4.35-1.27 7.37-6.6 9.92-10.06 1.78-2.8 4.43-4.12 7.14-5.82 3.66-2.24 6.97-4.85 10.35-7.47 1.44 2.56 3.17 4.68 2.42 7.82-1.4 6.39-6.59 11.01-11.48 14.92-12.52 9.5-28.96 14.76-44.24 17.66-14.49 1.98-27.99 4.19-42.61 1.47-12.77-2.46-26.17-7.51-36.14-16.09-3.77-3.41-8.37-8.53-7.81-14.01.33-3.74 3.92-6.31 7.09-7.71 7.95-3.35 16.73-3.08 25.15-2.22 8.71 1.23 17.39 3.52 25.38 7.26 1.55.63 3.37 1.64 5.08 1.52 3.1-1.25 5.75-3.55 8.75-5.06 8.84-4.63 18.43-7.87 28.23-9.73 11.45-2.02 23.37-2.95 34.55.95Z" fill="#fff"/></g><g transform="translate(-161 -83)"><path fill-rule="evenodd" clip-rule="evenodd" d="M608 415.8c6.186-.151 12.368-.167 18.55-.183 4.483-.012 8.966-.024 13.45-.087.562.005 1.127.006 1.693.008 3.106.01 6.253.02 9.307.502 2.58.53 5.61 1.94 6.09 4.83.91 5.11.46 12.04-1.14 16.99-.46 1.77-1.74 2.1-3.35 2.34-3.462.36-6.945.569-10.423.778-1.253.075-2.506.15-3.757.232.122 4.281.38 8.636.639 13.018.692 11.72 1.395 23.63-.439 34.802-.87 7.47-2.98 14.85-5.73 21.83-3.11 8.55-9.09 16.19-15.42 22.62-9.83 10.36-22.25 18.39-36.2 21.81-10.85 2.39-22.17 2.98-33.23 2.16-9.22-1.58-18.8-3.87-27.06-8.4-10.51-6.05-18.47-15.05-24.78-25.29-8.17-12.62-11.9-27.18-15.47-41.59-.515-2.188-.844-4.449-1.174-6.711-.414-2.834-.827-5.671-1.606-8.369-.48-1.78-2.64-3.07-4.17-3.9-6.71-3.36-16.41-.94-18.99 6.6-.499 2.84-.553 5.746-.608 8.66-.053 2.861-.106 5.73-.582 8.55-1.99 13.03-4.77 26.14-10.56 38.06-5.55 11.58-11.7 22.03-22.47 29.5-12.88 7.76-28.34 13.44-43.57 11.92-6.86-.15-14.05-1.41-20.36-4.13-6.87-3.71-13.8-8.11-18.84-14.16-10.32-12.28-16.95-27.7-20.79-43.17-1.87-6.83-3.04-13.81-2.97-20.91-1.637.243-3.268.56-4.899.877-2.393.466-4.787.931-7.201 1.163-2.24.22-4.26-.69-5.36-2.69-1.96-3.76-2.46-8.38-1.77-12.53.041-.174.078-.354.116-.535.231-1.113.479-2.305 1.614-2.795 27.43-12.56 55.94-20.6 85.48-26.45 11.24-2.31 22.47-3.81 33.98-3.07 10.03.01 19.98 2.36 28.86 7.05 10.79 4.81 24.51 5.41 35.15-.12 3.04-1.482 4.933-3.677 6.926-5.986 1.193-1.383 2.422-2.807 3.954-4.144 9.81-9.08 23.09-13.26 36.12-14.79 13.108-2.381 26.26-3.017 39.523-3.659l2.497-.121c5.544-.149 11.094-.149 16.646-.149 7.446 0 14.893 0 22.324-.361Zm-23 6.26c8.34-.34 16.32-.45 24.15 2.9.646.302 1.365.598 2.113.906 3.164 1.304 6.86 2.826 7.887 5.964 5.81 12.39 8.22 26.56 8.39 40.17.56 12.44-.87 25.5-5.21 37.22-3.71 9.79-10.5 17.11-18.25 23.88-5.21 4.32-11.62 7.49-17.78 10.22-9.15 3.83-19.3 6.8-29.31 6.15-5.792-.342-11.557-1.779-17.192-3.184l-.868-.216c-5.96-1.466-10.686-4.562-15.7-7.847l-.001-.001-.859-.562c-6.8-4.54-12.23-10.46-17.08-16.98-2.766-3.934-4.565-8.67-6.303-13.249a253.502 253.502 0 0 0-1.217-3.161c-4.64-11.94-5.98-24.55-5.87-37.28.09-7.74 1.2-16.94 5.51-23.55 5.13-6.46 12-12.24 19.82-15.08 9.27-2.8 19.13-4.25 28.78-4.96 11.572-1.279 23.168-1.304 34.654-1.328 1.447-.003 2.892-.006 4.336-.012Zm-172.354 22.059c-.891-.021-1.778-.041-2.656-.079-8.612-.872-17.851.939-26.497 2.634-1.173.23-2.335.457-3.483.676-2.29.516-4.571 1.006-6.843 1.494-9.393 2.017-18.626 4-27.677 7.656-.903.361-1.836.713-2.782 1.069-5.765 2.175-12.01 4.53-14.948 10.191-4.839 9.868-3.731 19.612-2.557 29.93.124 1.09.249 2.186.367 3.29 1.93 11.77 6.83 23.25 13.14 33.33 5.06 8.01 10.9 15.08 19.42 19.57 12.78 7.1 27.95 6.15 41.4 1.57 11.36-4.43 21.76-9.82 28.56-20.38 8.84-14.04 13.92-30.65 15.47-47.12.91-9.38-.1-18.83-2.68-27.88-.46-1.39-.98-2.92-1.89-4.09-5.19-5.6-11.6-9.87-19.19-11.35-2.333-.401-4.756-.456-7.154-.511Z" fill="#000"/></g><g transform="translate(-161 -83)"><path d="M427 196.56c19.44-.9 39.57 1.11 58.04 7.46 1.76.74 3.21.09 4.96-.27 12.93-3.13 25.79-3.37 39-2.71 19.39 1.53 38.5 7.31 55.74 16.25 1.44.59 2.62 1.49 4.23.83 6.07-1.88 12.01-4.11 18.2-5.63 14.04-3.67 28.42-3.82 42.83-3.13 16.41 1.52 32.6 6.41 47.66 13 15.77 7.19 30.09 17.41 42.08 29.91 11.45 11.95 19.85 27.29 22.5 43.71 1.78 12.24 1.38 24.56-3.03 36.23-2.17 5.66-4.85 12.5-9.49 16.59-1.86 1.56-5.48 1.06-5.66-1.82-.42-4.71.01-9.32-1.14-14-2.58-11.73-9.84-21.7-19.41-28.76 1.34 3.63 2.56 7.38 4.29 10.85 5.22 9.66 8.95 20.32 12.45 30.7 8.6 25.75 15.21 52.29 18.91 79.19.93 9.95 2.5 21.08.44 30.89-.43 1.97-1.22 4.15-3.56 4.3-4.07-.26-7.9-1.28-12.03-.66-15.22 1.87-30 8.15-42.25 17.32-.87.6-1.79 1.06-2.75 1.36-1.93-.52-2.79-1.8-3.33-3.64-1.65-5.79-2.73-11.71-4.82-17.43-1.8-5.02-4.26-9.45-6.54-14.28-2.46-5.09-4.39-10.39-7.04-15.39-7.45 6.27-15.56 11.62-24.65 15.21-5.41 2.02-10.28 4.17-16.17 4.03-.59-2.39-.96-3.48.72-5.51 4.68-5.7 6.99-13.04 8.31-20.2 1.62-11.32-1.62-23.92-8.3-33.2-6.27-8.23-14.79-15-23.59-20.36-5.24-3.28-10.93-5.69-16.18-8.95-.95 25.78-11.13 51.33-28.57 70.4-4.04 4.46-8.86 7.98-14.08 10.94-1.09.49-2.48 1.5-3.7 1.16-1.91-.32-3.16-2.01-2.55-3.94 1.07-4.33 2.8-8.4 3.52-12.84 1.98-12.43-.81-25.05-5.74-36.46-3.13-7.26-7.76-13.39-12.59-19.58-5.65 19.13-13.39 39.01-25.84 54.8-3.07 3.71-6.38 7.72-10.45 10.37-1.96 1.11-5.21.53-5.07-2.24.25-5.54 1.09-10.73-.45-16.2-1.58 5.88-3.29 11.54-6.08 16.98-.9 1.56-1.86 3.21-3.8 3.53-1.4.3-2.84-.73-4.03-1.37-21.96-13.95-41.44-31.55-57.41-52.1-3.85 11.56-6.07 23.9-5.76 36.1 0 3.49 1.41 7.27.82 10.68-2.19 1.93-5.03.75-7.43-.03-16.47-6.34-31.37-16.58-43.24-29.63-11.03-12.12-20.16-27.51-22.89-43.84-6.07 9.52-11.68 19.56-15.76 30.09-1.15 2.51-1.2 7.07-4.39 7.76-1.49.8-3.08-1.24-3.6-2.47-3.21-7.02-5.17-14.48-6.13-22.14-2.37 2.8-4.4 5.66-5.83 9.07-.68 1.29-1.54 3.44-3.37 2.97-2.04.2-2.91-2.74-3.43-4.25-3.81-13.28-7.17-26.25-6.77-40.21-.4-18.35 6.85-36.57 18.96-50.24 8.58-9.81 19.62-18.41 32.31-21.99.04-7.03 1.51-13.82 4.49-20.19 6.53-14.03 17.79-25.19 30.93-33.14 14.11-8.61 31.15-12.72 47.51-13.88Z" fill="#000"/><path d="M429 202.22c18.27-.6 36.73.98 54.18 6.69 6.93 1.84 12.01-.99 18.82-1.48 15.55-2.19 31.72-.93 46.98 2.61 28.03 6.68 53.47 21.94 74.05 41.93 3.41 3.24 6.28 6.76 10 9.65.97-.78 2.72-1.31 2.81-2.73.32-1.97-1.13-3.09-2.27-4.45-11.59-12.23-24.89-23.43-39.49-31.91 8.51-2.85 16.99-5.49 25.92-6.71 13.34-1.43 26.54-1.77 39.8.67 17.38 3.44 34.76 9.44 49.85 18.84 10.33 6.33 19.75 14.19 27.92 23.13 12.21 13.64 19.87 31.08 19.94 49.54.36 11.04-2.71 21.6-7.75 31.33-.93-8.08-2.95-15.84-7.25-22.82-5.67-9.07-13.58-17.23-23.72-21.15-2.41-.73-4.83 1-4.27 3.67 1.14 3.47 3.2 6.61 4.54 10.02 4.35 10.45 7.58 21.55 5.72 32.96-1.94 15.97-10.11 29.68-21.27 40.98 5.97-26.19-1.6-54.82-20.35-74.14-1.39-1.54-3.85-1.69-4.85.34-.81 2.47.86 3.6 2.24 5.29 12.45 13.76 19.19 32.01 19.29 50.52-.25 14.45-4.23 28.68-11.98 40.91-9.67 15.51-24.79 27.37-42.12 33.15 3.06-7.02 5.74-14.3 5.81-22.06.6-13.41-4.21-27.29-13.39-37.14-9.09-9.77-20.27-17.03-32.25-22.77-2.86-1.4-6.8-3.44-8.48-6.22-1.02-6.83-2.59-13.48-5.41-19.81-.66-1.26-1.45-2.76-3.04-2.9-1.83-.27-3.6.81-3.1 2.83 1.98 5.65 4.44 10.97 5.18 17.01 1.54 7.84.33 15.21-.65 23-2.87 16.84-9.41 32.95-19.76 46.6-4.14 5.6-8.81 10.73-14.58 14.69 3.36-11.52 2.99-23.8-.44-35.25-3.6-13.37-11.02-24.9-20.4-34.94 4.72-18.99 6.17-38.63 4.23-58.11-1.57-14.59-5.82-29.24-12.19-42.46-1.16-2.35-3.04-1.48-5.12-1.26-.08 2.29.03 4.22 1.11 6.29 9.27 20.39 12.75 42.97 10.95 65.25-1.35 20.24-6.8 40.29-14.58 58.98-5.29 12.57-11.99 24.48-21.39 34.46.12-8.81-1.44-17.91-4.19-26.27-.42-1.89-1.59-2.58-3.04-3.67-3.4 2.37-2.49 6.01-3.22 9.65-.81 8.46-3.02 16.39-6.4 24.17-15.1-9.14-28.85-20.74-41.15-33.37-15.11-15.67-27.8-33.31-36.58-53.29-6.3-14.78-11.05-30.23-10.59-46.47-.4-12.51 2.66-25.07 8.99-35.87 6.25-10.59 15.79-18.87 26.88-24.08 10.13-4.83 20.97-7.04 32.1-7.91 3.15-.4 2.37-2.34 2.71-4.73-1.91-.49-3.76-.9-5.76-.67-16.19 1.26-32.05 6.25-44.94 16.35-13.54 10.42-22.19 26.08-24.78 42.88-2.47 14.66-.71 28.92 2.92 43.19-5.75-3.89-11.39-8.14-16.51-12.85-8.93-8.18-15.73-18.28-20.63-29.32-3.91-8.84-5-18.99-3.18-28.46 3.68-14.96 14.83-27.76 27.29-36.36 15.08-10.41 32.74-14.84 50.84-15.95Z" fill="rgba(86, 35, 6, 1)"/><path d="M344.4 269.15c1.66 13.46 7.92 24.9 15.77 35.71 8.73 11.69 20.01 19.99 32.05 27.95 2.41 1.52 2.69 3.87 3.74 6.32 5.02 13.12 12.44 25.62 20.45 37.14-5.26 14.8-8.13 31.07-6.56 46.77-15.12-5.69-28.85-15.27-39.87-27.03-10.94-11.83-19.39-26.01-22.32-42.01-1.11-8.28-1-17.81 2.95-25.39.83-1.86 2.11-3.67 1.89-5.79-1.31-2.08-3.42-2.31-5.01-.4-4.34 6.32-5.69 14.15-6.4 21.63-.18 3.35-2.57 6-4.29 8.75-6.12 9.4-11.46 19.5-15.73 29.88-2.08-5.71-3.42-11.62-3.76-17.69-.09-2.23-.79-4.26-1.57-6.33-1.27.42-2.48.65-3.48 1.6-3.21 2.78-5.97 6.28-8.54 9.63-2.92-11.2-5.5-22.21-5.31-33.89-.08-15.95 5.67-31.58 15.6-44.01 8.05-10.02 18.04-18.68 30.39-22.84ZM730.99 337.12l.16.36c8.95 23.83 15.4 48.71 20.04 73.72 2.18 13.74 4.99 28.92 2.98 42.77-5.09-.35-10.13-.46-15.17.43-13.71 2.35-26.95 8.11-38.38 16-1.2-4.41-2.33-8.85-3.71-13.21-2.44-7.54-6.91-14.58-10.11-21.98-1.66-3.93-3.39-7.81-5.66-11.43 9.02-9.43 15.69-20.05 20.03-32.37 6.99-4.34 12.54-11.33 17.26-17.98 7.56-10.65 12.02-23.24 12.56-36.31Z" fill="rgba(86, 35, 6, 1)"/><path d="M716.8 472.18c1.5 1.19 1.29 3.27-.23 4.34-4.55 3.52-9.55 6.43-14.06 10.02-2.46 1.85-4.78 3.87-7.18 5.78-1.16.9-2.98 2.16-4.24.74-1.62-1.72-.46-3.64 1.05-4.93 6.23-5.49 13.01-10.42 19.87-15.1 1.12-.73 3.76-2.28 4.79-.85Z" fill="#000"/></g></g></svg>